<svg width="72" height="72" viewBox="0 0 72 72" fill="none" xmlns="http://www.w3.org/2000/svg">
<mask id="mask0_3508_29716" style="mask-type:alpha" maskUnits="userSpaceOnUse" x="0" y="0" width="72" height="72">
<rect width="72" height="72" rx="19.6364" fill="#F9FBFD"/>
</mask>
<g mask="url(#mask0_3508_29716)">
<rect x="-0.203125" width="72.2024" height="72" rx="19.6364" fill="#199B61"/>
<path d="M18.3262 34.8875C19.1522 34.8875 19.9392 35.054 20.6562 35.3542C20.5336 35.97 20.4688 36.6068 20.4688 37.2585C20.4688 39.9795 21.5909 42.4379 23.3955 44.2C22.32 45.8613 20.4526 46.9616 18.3262 46.9617C14.9919 46.9617 12.2891 44.2588 12.2891 40.9246C12.2892 37.5905 14.992 34.8875 18.3262 34.8875ZM30.1719 27.5564C31.7294 27.5564 33.2006 27.9256 34.5049 28.5779C33.809 30.1812 33.4229 31.9501 33.4229 33.8093C33.4229 37.6214 35.0445 41.0546 37.6357 43.4568C35.8561 45.5978 33.1735 46.9616 30.1719 46.9617C27.5348 46.9613 25.1445 45.9077 23.3955 44.2C24.0064 43.2563 24.3633 42.1324 24.3633 40.9246C24.3631 38.4165 22.8334 36.266 20.6562 35.3542C21.5417 30.9083 25.466 27.557 30.1719 27.5564ZM46.5752 20.657C53.8388 20.6572 59.7274 26.5457 59.7275 33.8093C59.7275 41.0731 53.8389 46.9615 46.5752 46.9617C43.1234 46.9617 39.9821 45.632 37.6357 43.4568C39.0331 41.7756 39.874 39.6155 39.874 37.2585C39.8737 33.4579 37.6877 30.1696 34.5049 28.5779C36.5278 23.9173 41.1707 20.657 46.5752 20.657Z" fill="white"/>
</g>
</svg>
