<svg width="72" height="72" viewBox="0 0 72 72" fill="none" xmlns="http://www.w3.org/2000/svg">
<mask id="mask0_3525_29046" style="mask-type:alpha" maskUnits="userSpaceOnUse" x="0" y="0" width="72" height="72">
<rect width="72" height="72" rx="19.6364" fill="#F9FBFD"/>
</mask>
<g mask="url(#mask0_3525_29046)">
<rect x="-0.203125" width="72.2024" height="72" rx="19.6364" fill="black"/>
<path d="M17 41.655C17 40.7028 17.7719 39.9309 18.7241 39.9309H33.3793V54.9999H18.7241C17.7719 54.9999 17 54.228 17 53.2758V41.655Z" fill="white"/>
<path d="M33.3789 39.9309H53.2755C54.2277 39.9309 54.9996 40.7028 54.9996 41.655V53.2758C54.9996 54.228 54.2277 54.9999 53.2755 54.9999H49.1267C48.1793 54.9999 47.2736 54.6101 46.6224 53.9221L33.3789 39.9309Z" fill="white"/>
<path d="M17 18.7241C17 17.7719 17.7719 17 18.7241 17H31.6552C32.6074 17 33.3793 17.7719 33.3793 18.7241V39.9311L17.9881 24.26C17.3548 23.6152 17 22.7476 17 21.8438V18.7241Z" fill="white"/>
</g>
</svg>
